<svg width="21" height="21" viewBox="0 0 21 21" fill="none" xmlns="http://www.w3.org/2000/svg">
<path d="M4.20424 14.01C6.25829 16.3539 8.73093 18.1994 11.5531 19.5053C12.6276 19.9914 14.0646 20.5681 15.6655 20.667C15.7648 20.6711 15.8597 20.6752 15.959 20.6752C17.0335 20.6752 17.8965 20.3209 18.5999 19.5918C18.6042 19.5877 18.6129 19.5794 18.6172 19.5712C18.8675 19.2828 19.1523 19.0233 19.45 18.7473C19.6528 18.5619 19.86 18.3683 20.0585 18.1706C20.9776 17.2561 20.9776 16.0944 20.0498 15.2087L17.4564 12.733C17.0162 12.2963 16.4898 12.0656 15.9374 12.0656C15.385 12.0656 14.8543 12.2963 14.4012 12.7289L12.8563 14.2036C12.7139 14.1253 12.5672 14.0553 12.4291 13.9894C12.2565 13.907 12.0968 13.8287 11.9544 13.7422C10.5477 12.8895 9.27034 11.7773 8.04912 10.3478C7.43204 9.60222 7.01778 8.97607 6.72866 8.33756C7.13429 7.98741 7.51403 7.62078 7.88083 7.26239C8.01029 7.13469 8.14406 7.00699 8.27783 6.87929C8.74388 6.43439 8.99416 5.91947 8.99416 5.3963C8.99416 4.87314 8.74819 4.35821 8.27783 3.91331L6.99189 2.68573C6.84085 2.54155 6.69845 2.40149 6.55173 2.25731C6.26692 1.97719 5.96917 1.68883 5.67573 1.42931C5.23126 1.01325 4.70912 0.794922 4.15677 0.794922C3.60873 0.794922 3.08227 1.01325 2.62054 1.43343L1.00664 2.97409C0.419761 3.53433 0.087487 4.21403 0.018443 5.00084C-0.0635467 5.98538 0.126324 7.03171 0.618263 8.29637C1.37343 10.2531 2.51266 12.0697 4.20424 14.01ZM1.07136 5.08735C1.12315 4.53946 1.34322 4.08221 1.75749 3.68675L3.36276 2.15433C3.61305 1.92364 3.88922 1.80418 4.15677 1.80418C4.42 1.80418 4.68754 1.92364 4.93351 2.16257C5.22263 2.41797 5.49449 2.68573 5.78793 2.96997C5.93465 3.11415 6.08568 3.25833 6.23672 3.40663L7.52266 4.63421C7.79021 4.88961 7.9283 5.14914 7.9283 5.40454C7.9283 5.65994 7.79021 5.91947 7.52266 6.17487C7.38889 6.30257 7.25512 6.43439 7.12134 6.56209C6.72003 6.94932 6.3446 7.31595 5.93034 7.6661L5.90876 7.68669C5.55059 8.0286 5.60669 8.35404 5.693 8.6012C5.69731 8.61356 5.70163 8.6218 5.70594 8.63416C6.03822 9.39625 6.49995 10.1213 7.22059 10.9863C8.51517 12.5105 9.87879 13.6928 11.3805 14.6032C11.5661 14.7185 11.7646 14.8092 11.9501 14.8998C12.1227 14.9822 12.2824 15.0604 12.4248 15.1469C12.442 15.1552 12.455 15.1634 12.4723 15.1717C12.6147 15.2417 12.7527 15.2746 12.8908 15.2746C13.2361 15.2746 13.4604 15.0646 13.5338 14.9945L15.1477 13.4539C15.398 13.2149 15.6699 13.0872 15.9374 13.0872C16.2654 13.0872 16.5329 13.2808 16.7012 13.4539L19.3033 15.9337C19.8211 16.4281 19.8168 16.9636 19.2903 17.4868C19.1091 17.6721 18.9192 17.8493 18.7164 18.0346C18.4144 18.3148 18.0993 18.6031 17.8145 18.9286C17.3183 19.4394 16.7271 19.6783 15.9633 19.6783C15.8899 19.6783 15.8123 19.6742 15.7389 19.6701C14.3235 19.5835 13.0073 19.0563 12.0192 18.6072C9.33507 17.3673 6.97894 15.6083 5.02413 13.3756C3.41454 11.526 2.33142 9.80407 1.61509 7.95857C1.17061 6.82574 1.00232 5.91535 1.07136 5.08735Z" fill="#891819"/>
</svg>
