<svg width="129" height="58" viewBox="0 0 129 58" fill="none" xmlns="http://www.w3.org/2000/svg">
<path d="M113.219 55.7791C112.761 56.2019 112.298 56.6247 111.704 57.1734C111.911 53.0508 112.193 49.1748 112.278 45.2938C112.384 40.4211 109.721 36.9931 104.989 35.7145C100.217 34.4259 95.4503 33.102 90.643 31.9292C86.9634 31.0331 84.9448 28.6371 84.381 25.0983C83.1629 17.4521 82.1259 9.7756 81.0386 2.11423C80.9933 1.80717 81.1443 1.47494 81.1997 1.15782C81.4313 0.981634 81.6628 0.805453 81.8944 0.629271C82.0001 1.01184 82.0101 1.64609 82.2316 1.7367C82.9062 2.00852 83.6663 2.06389 84.3961 2.20484C84.4566 0.327246 85.9818 0.89606 86.9332 0.830622C90.7991 0.558799 94.67 0.382618 98.541 0.281942C99.2457 0.261807 99.9504 0.926263 100.685 0.996735C101.32 1.05714 101.989 0.729946 102.84 0.523563C103.227 4.18814 103.625 8.08929 104.053 11.9854C104.345 14.6231 104.612 17.2608 105.009 19.8834C105.392 22.4003 106.862 23.8449 109.333 24.3383C113.823 25.2343 118.319 26.1252 122.814 26.9961C127.233 27.8518 129.257 30.3888 128.965 34.8487C128.824 36.9931 128.819 39.1878 128.336 41.2617C127.948 42.9279 126.936 44.4531 126.201 46.0388C125.98 45.9532 125.764 45.8626 125.542 45.777V44.0957C122.426 46.4968 119.446 48.7318 116.552 51.0675C116.008 51.5104 115.832 52.3914 115.424 53.0306C114.981 53.7203 114.463 54.3646 113.98 55.029C114.201 53.836 114.428 52.643 114.704 51.1581C112.62 52.3662 112.223 53.9669 113.214 55.7791H113.219ZM89.0121 23.4775C93.3713 22.2442 97.4638 21.0814 101.612 19.9085C100.917 13.8831 100.252 8.1497 99.5729 2.25517C95.0274 2.60754 90.7638 2.93976 86.2788 3.29213C87.205 10.1028 88.096 16.6819 89.0171 23.4775H89.0121ZM89.7974 25.9692C90.7387 28.2142 92.2236 29.4676 94.373 30.0012C98.6064 31.0583 102.84 32.1406 107.073 33.1926C107.546 33.3084 108.14 33.4997 108.528 33.3235C111.946 31.7781 115.334 30.1573 118.726 28.5616C115.253 27.3837 111.85 26.6236 108.427 25.9742C105.835 25.4809 103.348 24.897 102.155 22.1385C97.947 23.4422 93.9401 24.6856 89.7923 25.9742L89.7974 25.9692ZM115.797 48.913C119.345 46.2955 122.487 44.0001 125.602 41.6644C125.844 41.4832 126.01 41.0755 126.04 40.7584C126.207 38.9814 126.413 37.1945 126.428 35.4125C126.443 33.2379 125.648 31.3352 123.881 29.9861C123.443 29.6489 122.607 29.3217 122.215 29.5129C118.908 31.1389 115.656 32.8906 112.142 34.7329C117.362 38.3522 116.079 43.5118 115.797 48.908V48.913ZM114.498 40.1191C113.078 36.7414 112.887 36.6357 111.07 37.9948C111.679 39.0116 112.288 40.0285 112.938 41.1006C113.476 40.7584 113.944 40.4664 114.498 40.114V40.1191ZM82.7501 5.55732C83.0018 6.60434 83.0823 7.53055 83.4951 8.27051C83.6209 8.49703 84.6629 8.21514 85.3677 8.15977C85.2166 7.05234 85.116 6.29224 84.9952 5.38617C84.2602 5.44154 83.6612 5.48684 82.7501 5.55732ZM87.8795 25.4507C87.6479 24.2929 87.4768 23.4372 87.2654 22.3852C86.4298 22.7275 85.871 22.954 85.262 23.2006C85.4432 24.1721 85.5992 24.9876 85.7804 25.9591C86.5103 25.7829 87.0892 25.642 87.8795 25.4507ZM83.7367 11.4669C83.8525 12.4586 83.9582 13.3798 84.1143 14.7187C85.0002 14.1902 85.8509 13.9788 86.0019 13.5257C86.2184 12.8865 85.9314 12.071 85.8459 11.2455C85.0455 11.331 84.4968 11.3864 83.7317 11.4669H83.7367ZM85.0153 20.0344C87.658 20.0042 86.8476 18.4739 86.5707 17.1551C84.3508 17.135 84.3005 17.2306 85.0153 20.0344ZM114.986 44.0404C112.434 44.9464 113.27 46.6982 113.184 48.2536C115.59 47.6143 114.674 45.7971 114.986 44.0404ZM91.1464 29.9207C90.0138 29.0045 89.2487 27.3887 87.4466 28.9945C88.408 30.2177 89.3242 31.315 91.1464 29.9207Z" fill="white"/>
<path d="M104.979 39.6408C107.118 40.0535 110.189 39.5351 110.28 43.2248C109.575 43.0486 108.92 43.0134 108.382 42.7365C104.828 40.8992 101.632 41.5385 98.4351 43.7483C96.4519 45.1225 94.1917 46.0941 91.554 47.5186C98.0173 49.9197 104.043 52.1547 110.043 54.3846C109.459 57.0072 108.055 58.0089 105.915 57.1935C99.165 54.6313 94.5239 52.7688 87.2451 49.9247C87.8592 49.1093 88.0505 48.9784 88.3878 48.4498C89.9231 46.0185 92.6363 45.5605 94.8108 44.2467C97.0106 42.9178 99.3463 41.7902 101.672 40.6828C102.704 40.1945 103.872 39.978 104.974 39.6357L104.979 39.6408ZM100.242 53.1765C101.662 54.4283 102.962 54.4283 104.143 53.1765H100.242ZM108.84 56.0256C108.79 55.6481 108.734 55.2706 108.684 54.8931C107.632 55.0491 106.58 55.2051 105.528 55.3612C105.578 55.7136 105.623 56.0659 105.674 56.4183C106.726 56.2874 107.783 56.1616 108.835 56.0307L108.84 56.0256ZM95.1229 51.1882C95.1229 51.5154 95.1229 51.8426 95.1229 52.1698H98.5761C98.5761 51.8426 98.5761 51.5154 98.5761 51.1882H95.1179H95.1229Z" fill="white"/>
<path d="M82.0449 3.0957C82.0449 3.0957 84.9695 28.4306 86.082 28.3198C86.1223 28.4809 88.7952 31.7529 92.0017 31.6874C92.0671 31.622 92.8021 30.58 92.8021 30.58L88.7952 25.959L85.3722 3.0957H82.05H82.0449Z" fill="white"/>
<path d="M92.7969 50.9919L94.6241 52.3712L105.532 56.6901H107.984C107.984 56.6901 109.408 56.2874 109.454 55.0894C109.499 55.1347 95.6057 49.5674 95.6057 49.5674L92.8019 50.9919H92.7969Z" fill="white"/>
<path d="M109.942 37.3657C109.942 37.3657 113.048 40.0839 112.701 46.5825C112.797 46.9852 112.223 56.6903 112.223 56.6903L113.984 55.0291C113.984 55.0291 116.139 52.4921 116.094 51.6767C116.129 51.6163 115.248 48.5557 115.248 48.5557L115.56 43.1092L114.714 38.4782L112.147 36.072L109.947 37.3657H109.942Z" fill="white"/>
<path d="M81.1994 1.16279C81.1994 1.16279 81.9343 -0.28693 85.7499 0.80036C85.6542 0.80036 85.2264 3.42798 85.2264 3.42798L82.04 2.52694L81.1943 1.16279H81.1994Z" fill="white"/>
<path d="M98.5459 0.286962C98.5459 0.286962 102.492 -0.498303 102.845 0.533616L102.029 2.79881L98.5459 0.291996V0.286962Z" fill="white"/>
<path d="M0 24.3635L3.74511 10.9838L7.29894 21.6805L13.5911 10.9636L13.9133 24.3584H12.4887L12.373 15.5393L6.92141 24.887L3.80552 15.5393L1.46986 24.3584H0V24.3635Z" fill="white"/>
<path d="M23.8653 22.3498C23.5029 22.9589 22.934 23.6233 22.4005 23.9858C21.6202 24.4992 20.7846 24.5948 20.1202 24.5948C19.1889 24.5948 18.298 24.4237 17.5177 23.6082C17.0446 23.1149 16.4707 22.2391 16.4707 20.7793C16.4707 19.4302 16.9841 18.2322 17.8197 17.3966C18.6352 16.5811 19.5312 16.2942 20.5732 16.2942C21.9021 16.2942 22.6824 16.7674 23.1404 17.2254C23.7092 17.8144 24.2428 18.8966 24.0314 20.7038H17.8953C17.8751 21.8263 18.2577 22.4505 18.6 22.7928C19.0581 23.2508 19.5866 23.3817 20.1604 23.3817C20.6185 23.3817 21.1672 23.3062 21.6806 22.9438C22.0783 22.6569 22.476 22.1434 22.7075 21.7256L23.8653 22.3548V22.3498ZM22.7277 19.5561C22.7075 18.9872 22.4609 18.3782 22.0632 17.9956C21.6253 17.5778 21.0565 17.5023 20.6185 17.5023C19.9138 17.5023 19.3651 17.6936 18.8869 18.1667C18.5446 18.509 18.2577 19.0023 18.1268 19.5561H22.7277Z" fill="white"/>
<path d="M27.8972 17.7339L27.0817 24.3633H25.7125L26.528 17.7339H25.6924L25.8434 16.4805H26.679L27.0213 13.6313H28.3905L28.0482 16.4805H29.4174L29.2663 17.7339H27.8972Z" fill="white"/>
<path d="M30.706 16.4806H32.0752L31.9594 17.3363C32.1105 17.0897 32.3571 16.8027 32.7598 16.5762C33.1373 16.3648 33.4796 16.2893 33.8974 16.2893C34.3706 16.2893 34.733 16.4051 35.0552 16.6115L34.2548 17.8447C34.1038 17.729 33.8572 17.5779 33.4394 17.5779C33.0618 17.5779 32.6994 17.6937 32.3923 17.9957C31.8437 18.5293 31.7078 19.4203 31.6121 20.2005L31.0987 24.3634H29.7295L30.701 16.4756L30.706 16.4806Z" fill="white"/>
<path d="M35.8954 23.5077C35.3467 22.9188 34.8887 22.0278 34.8887 20.7542C34.8887 19.6166 35.2662 18.4337 36.3132 17.4672C37.1891 16.6668 38.1959 16.2893 39.4694 16.2893C40.7429 16.2893 41.6943 16.7071 42.3588 17.3716C43.1541 18.1719 43.3252 19.1384 43.3252 19.9539C43.3252 21.6654 42.6205 22.7677 41.9963 23.3718C40.9896 24.3584 39.7714 24.59 38.7093 24.59C37.5868 24.59 36.6555 24.303 35.8954 23.5077ZM37.2998 18.3783C36.6354 19.0226 36.2931 19.8985 36.2931 20.8499C36.2931 21.7409 36.6706 22.3147 36.9777 22.6369C37.2646 22.9389 37.8334 23.3768 38.7999 23.3768C39.7664 23.3768 40.4912 22.959 40.9493 22.4657C41.5383 21.8365 41.9007 20.8902 41.9007 19.974C41.9007 19.1787 41.5987 18.5847 41.2564 18.2273C40.8587 17.8095 40.2295 17.5075 39.4493 17.5075C38.9157 17.5075 38.065 17.6384 37.2998 18.3833V18.3783Z" fill="white"/>
<path d="M45.7569 28.7378H44.3877L45.9079 16.4806H47.2771L47.1462 17.583C47.5086 17.1098 47.9264 16.8229 48.2486 16.6517C48.7822 16.3648 49.2956 16.2893 49.8644 16.2893C50.549 16.2893 51.5356 16.4202 52.336 17.2004C52.9451 17.7894 53.3629 18.6451 53.3629 19.9186C53.3629 21.4187 52.8142 22.7476 51.9736 23.5681C51.0977 24.4239 50.1312 24.595 49.1446 24.595C48.6311 24.595 47.9466 24.5396 47.3375 24.1571C46.975 23.9305 46.6529 23.5882 46.4465 23.2661L45.7619 28.7378H45.7569ZM50.8863 22.7124C51.6061 22.0479 51.9484 20.9808 51.9484 20.0143C51.9484 19.0478 51.5709 18.474 51.2638 18.1719C50.9215 17.8095 50.3728 17.5075 49.5171 17.5075C48.6614 17.5075 48.0523 17.8095 47.559 18.3431C46.9901 18.9522 46.6831 19.823 46.6831 20.7391C46.6831 21.3482 46.814 22.0328 47.3274 22.6218C47.8207 23.1704 48.4298 23.3819 49.0943 23.3819C49.7587 23.3819 50.3477 23.2107 50.8812 22.7174L50.8863 22.7124Z" fill="white"/>
<path d="M55.9599 23.5077C55.4112 22.9188 54.9531 22.0278 54.9531 20.7542C54.9531 19.6166 55.3307 18.4337 56.3777 17.4672C57.2536 16.6668 58.2603 16.2893 59.5338 16.2893C60.8074 16.2893 61.7588 16.7071 62.4232 17.3716C63.2186 18.1719 63.3897 19.1384 63.3897 19.9539C63.3897 21.6654 62.685 22.7677 62.0608 23.3718C61.054 24.3584 59.8359 24.59 58.7737 24.59C57.6512 24.59 56.72 24.303 55.9599 23.5077ZM57.3643 18.3783C56.6998 19.0226 56.3575 19.8985 56.3575 20.8499C56.3575 21.7409 56.7351 22.3147 57.0421 22.6369C57.3291 22.9389 57.8979 23.3768 58.8644 23.3768C59.8308 23.3768 60.5557 22.959 61.0138 22.4657C61.6027 21.8365 61.9651 20.8902 61.9651 19.974C61.9651 19.1787 61.6631 18.5847 61.3208 18.2273C60.9232 17.8095 60.2939 17.5075 59.5137 17.5075C58.9801 17.5075 58.1294 17.6384 57.3643 18.3833V18.3783Z" fill="white"/>
<path d="M68.0865 10.5105L66.375 24.3634H65.0059L66.7173 10.5105H68.0865Z" fill="white"/>
<path d="M32.7291 31.5819L31.2643 43.4968H30.4287L31.8935 31.5819H28.6064L28.7021 30.8218H36.1118L36.0161 31.5819H32.7291Z" fill="white"/>
<path d="M36.9475 29.6439H37.7076L36.7965 36.9579C37.023 36.5804 37.3452 36.2381 37.6522 36.0267C38.0298 35.7599 38.5633 35.5686 39.2127 35.5686C39.9174 35.5686 40.5215 35.78 40.9242 36.1575C41.7044 36.8774 41.5886 37.9445 41.5131 38.609L40.904 43.4917H40.1439L40.753 38.609C40.8285 37.9647 40.8487 37.2398 40.3554 36.7465C40.1087 36.4998 39.6909 36.2884 39.1221 36.2884C38.3268 36.2884 37.8133 36.6307 37.4861 36.9529C37.1438 37.2952 36.6706 37.9999 36.4995 39.4597L36.0062 43.4867H35.2461L36.9576 29.6338L36.9475 29.6439Z" fill="white"/>
<path d="M43.8844 39.7164C43.7133 40.7232 44.1311 41.6947 44.6647 42.2232C44.9667 42.5252 45.5758 42.9833 46.6228 42.9833C47.2319 42.9833 47.9316 42.8122 48.4651 42.4346C48.8829 42.1326 49.2655 41.6544 49.4719 41.2165L50.0608 41.594C49.7387 42.1628 49.2252 42.7719 48.6766 43.1343C48.2789 43.4011 47.6144 43.7031 46.6027 43.7031C45.5909 43.7031 44.72 43.4364 44.0203 42.6763C43.3358 41.9564 43.0488 41.0403 43.0488 40.0335C43.0488 38.5889 43.5824 37.4512 44.3425 36.6911C44.9516 36.082 45.8426 35.5686 47.1161 35.5686C48.143 35.5686 48.9987 35.931 49.5474 36.4596C50.4233 37.2952 50.5944 38.5133 50.4988 39.7114H43.8844V39.7164ZM49.7387 38.9966C49.7186 38.1811 49.3763 37.4563 48.9585 37.0183C48.596 36.6408 48.0071 36.2985 47.1161 36.2985C45.9936 36.2985 45.2737 36.8321 44.8912 37.2297C44.5086 37.6274 44.1512 38.2164 44.0002 38.9966H49.7387Z" fill="white"/>
<path d="M59.6199 35.7446H60.38L59.4286 43.4966H58.6685L58.8195 42.2986C58.5175 42.7164 58.1349 43.0788 57.6819 43.3053C57.2238 43.5319 56.6348 43.703 55.8949 43.703C55.0039 43.703 54.1482 43.4916 53.4233 42.812C52.9501 42.3741 52.3008 41.5032 52.3008 39.9982C52.3008 38.7246 52.7387 37.4712 53.6096 36.6356C54.1784 36.0869 55.0744 35.5735 56.4788 35.5735C57.0879 35.5735 57.7725 35.6893 58.3614 36.0869C58.8195 36.389 59.197 36.8269 59.4235 37.2648L59.6148 35.7446H59.6199ZM54.1482 37.1491C53.5189 37.7783 53.1011 38.8404 53.1011 39.9428C53.1011 40.9294 53.4837 41.765 53.9921 42.2633C54.6364 42.8724 55.4167 42.9832 55.9704 42.9832C56.6902 42.9832 57.2641 42.812 57.8127 42.4144C58.9554 41.5788 59.2172 40.1341 59.2172 39.2985C59.2172 38.3672 58.9151 37.5669 58.4168 37.0735C58.0946 36.7313 57.4503 36.2933 56.3278 36.2933C55.472 36.2933 54.7321 36.5601 54.1431 37.1491H54.1482Z" fill="white"/>
<path d="M63.8385 36.4695L62.9828 43.5017H62.2227L63.0784 36.4695H62.2227L62.3183 35.7497H63.174L63.5163 32.9761H64.2764L63.9341 35.7497H65.2832L65.1875 36.4695H63.8385Z" fill="white"/>
<path d="M66.6675 39.7164C66.4963 40.7232 66.9141 41.6947 67.4477 42.2232C67.7497 42.5252 68.3588 42.9833 69.4059 42.9833C70.0149 42.9833 70.7146 42.8122 71.2482 42.4346C71.666 42.1326 72.0435 41.6544 72.2549 41.2165L72.8439 41.594C72.5217 42.1628 72.0083 42.7719 71.4546 43.1343C71.0569 43.4011 70.3925 43.7031 69.3857 43.7031C68.379 43.7031 67.5031 43.4364 66.8034 42.6763C66.1188 41.9564 65.8369 41.0403 65.8369 40.0335C65.8369 38.5889 66.3705 37.4512 67.1306 36.6911C67.7397 36.082 68.6306 35.5686 69.9042 35.5686C70.9311 35.5686 71.7868 35.931 72.3355 36.4596C73.2114 37.2952 73.3825 38.5133 73.2869 39.7114H66.6725L66.6675 39.7164ZM72.5217 38.9966C72.5016 38.1811 72.1593 37.4563 71.7415 37.0183C71.3791 36.6408 70.7901 36.2985 69.8992 36.2985C68.7766 36.2985 68.0568 36.8321 67.6742 37.2297C67.2967 37.6274 66.9343 38.2164 66.7833 38.9966H72.5217Z" fill="white"/>
<path d="M76.0549 35.7446H76.815L76.6992 36.7514C76.8502 36.4645 77.117 36.1222 77.4392 35.9158C77.7412 35.7044 78.159 35.5735 78.5768 35.5735C78.6926 35.5735 79.0147 35.5936 79.3369 35.7648L78.8788 36.4494C78.8033 36.394 78.6322 36.2983 78.3302 36.2983C77.9476 36.2983 77.5499 36.4896 77.268 36.7917C76.6388 37.4561 76.4677 38.6541 76.3569 39.6055L75.8636 43.5016H75.1035L76.0549 35.7497V35.7446Z" fill="white"/>
</svg>
