<svg width="129" height="58" viewBox="0 0 129 58" fill="none" xmlns="http://www.w3.org/2000/svg">
<path d="M113.218 55.7788C112.76 56.2017 112.297 56.6245 111.703 57.1732C111.91 53.0505 112.192 49.1745 112.277 45.2935C112.383 40.4208 109.72 36.9929 104.988 35.7143C100.216 34.4256 95.4493 33.1018 90.6421 31.9289C86.9624 31.0329 84.9438 28.6368 84.3801 25.0981C83.1619 17.4518 82.1249 9.77536 81.0377 2.11398C80.9924 1.80693 81.1434 1.4747 81.1987 1.15757C81.4303 0.98139 81.6618 0.805209 81.8934 0.629027C81.9991 1.01159 82.0092 1.64585 82.2307 1.73645C82.9052 2.00828 83.6653 2.06365 84.3952 2.20459C84.4556 0.327002 85.9808 0.895816 86.9322 0.830377C90.7981 0.558555 94.6691 0.382373 98.54 0.281698C99.2447 0.261563 99.9495 0.926019 100.684 0.996491C101.319 1.0569 101.988 0.729702 102.839 0.523318C103.226 4.18789 103.624 8.08905 104.052 11.9852C104.344 14.6229 104.611 17.2605 105.008 19.8831C105.391 22.4 106.861 23.8447 109.332 24.338C113.822 25.234 118.318 26.125 122.813 26.9958C127.232 27.8516 129.256 30.3886 128.964 34.8485C128.823 36.9929 128.818 39.1876 128.335 41.2615C127.947 42.9277 126.935 44.4529 126.2 46.0385C125.979 45.9529 125.763 45.8623 125.541 45.7768V44.0955C122.425 46.4966 119.445 48.7316 116.551 51.0672C116.007 51.5102 115.831 52.3911 115.423 53.0304C114.98 53.72 114.462 54.3643 113.979 55.0288C114.2 53.8358 114.427 52.6428 114.703 51.1578C112.619 52.3659 112.222 53.9667 113.213 55.7788H113.218ZM89.0111 23.4772C93.3704 22.244 97.4628 21.0812 101.611 19.9083C100.916 13.8829 100.251 8.14946 99.5719 2.25493C95.0265 2.60729 90.7629 2.93952 86.2778 3.29188C87.204 10.1026 88.095 16.6817 89.0162 23.4772H89.0111ZM89.7964 25.9689C90.7377 28.214 92.2227 29.4674 94.3721 30.001C98.6055 31.0581 102.839 32.1403 107.072 33.1924C107.545 33.3082 108.139 33.4994 108.527 33.3233C111.945 31.7779 115.333 30.157 118.725 28.5613C115.252 27.3834 111.849 26.6233 108.426 25.974C105.834 25.4807 103.347 24.8968 102.154 22.1383C97.946 23.442 93.9392 24.6853 89.7914 25.974L89.7964 25.9689ZM115.796 48.9128C119.345 46.2952 122.486 43.9998 125.601 41.6642C125.843 41.483 126.009 41.0752 126.039 40.7581C126.206 38.9812 126.412 37.1942 126.427 35.4123C126.442 33.2377 125.647 31.3349 123.88 29.9859C123.442 29.6486 122.606 29.3214 122.214 29.5127C118.907 31.1386 115.655 32.8904 112.141 34.7327C117.361 38.352 116.078 43.5116 115.796 48.9078V48.9128ZM114.497 40.1188C113.077 36.7412 112.886 36.6355 111.069 37.9946C111.678 39.0114 112.287 40.0282 112.937 41.1004C113.475 40.7581 113.943 40.4662 114.497 40.1138V40.1188ZM82.7491 5.55707C83.0008 6.60409 83.0814 7.5303 83.4941 8.27027C83.62 8.49678 84.662 8.21489 85.3667 8.15952C85.2157 7.0521 85.115 6.292 84.9942 5.38592C84.2593 5.4413 83.6602 5.4866 82.7491 5.55707ZM87.8785 25.4505C87.647 24.2927 87.4758 23.437 87.2644 22.3849C86.4288 22.7272 85.8701 22.9537 85.261 23.2004C85.4422 24.1719 85.5982 24.9874 85.7795 25.9589C86.5093 25.7827 87.0882 25.6418 87.8785 25.4505ZM83.7357 11.4667C83.8515 12.4583 83.9572 13.3795 84.1133 14.7185C84.9992 14.19 85.8499 13.9785 86.0009 13.5255C86.2174 12.8862 85.9305 12.0707 85.8449 11.2452C85.0445 11.3308 84.4958 11.3862 83.7307 11.4667H83.7357ZM85.0143 20.0341C87.657 20.0039 86.8466 18.4737 86.5697 17.1548C84.3499 17.1347 84.2995 17.2303 85.0143 20.0341ZM114.985 44.0401C112.433 44.9462 113.269 46.6979 113.183 48.2534C115.589 47.6141 114.673 45.7969 114.985 44.0401ZM91.1454 29.9204C90.0128 29.0043 89.2477 27.3885 87.4456 28.9942C88.4071 30.2174 89.3232 31.3148 91.1454 29.9204Z" fill="#891819"/>
<path d="M104.978 39.6408C107.117 40.0535 110.188 39.5351 110.279 43.2248C109.574 43.0486 108.919 43.0134 108.381 42.7365C104.827 40.8992 101.631 41.5385 98.4342 43.7483C96.4509 45.1225 94.1907 46.0941 91.553 47.5186C98.0164 49.9197 104.042 52.1547 110.042 54.3846C109.458 57.0072 108.054 58.0089 105.914 57.1935C99.1641 54.6313 94.5229 52.7688 87.2441 49.9247C87.8583 49.1093 88.0495 48.9784 88.3868 48.4498C89.9221 46.0185 92.6353 45.5605 94.8099 44.2467C97.0096 42.9178 99.3453 41.7902 101.671 40.6828C102.703 40.1945 103.871 39.978 104.973 39.6357L104.978 39.6408ZM100.241 53.1765C101.661 54.4283 102.961 54.4283 104.142 53.1765H100.241ZM108.839 56.0256C108.789 55.6481 108.733 55.2706 108.683 54.8931C107.631 55.0491 106.579 55.2051 105.527 55.3612C105.577 55.7136 105.622 56.0659 105.673 56.4183C106.725 56.2874 107.782 56.1616 108.834 56.0307L108.839 56.0256ZM95.122 51.1882C95.122 51.5154 95.122 51.8426 95.122 52.1698H98.5751C98.5751 51.8426 98.5751 51.5154 98.5751 51.1882H95.1169H95.122Z" fill="#891819"/>
<path d="M82.0449 3.0957C82.0449 3.0957 84.9695 28.4306 86.082 28.3198C86.1223 28.4809 88.7952 31.7529 92.0017 31.6874C92.0671 31.622 92.8021 30.58 92.8021 30.58L88.7952 25.959L85.3722 3.0957H82.05H82.0449Z" fill="#891819"/>
<path d="M92.7969 50.9919L94.6241 52.3712L105.532 56.6901H107.984C107.984 56.6901 109.408 56.2874 109.454 55.0894C109.499 55.1347 95.6057 49.5674 95.6057 49.5674L92.8019 50.9919H92.7969Z" fill="#891819"/>
<path d="M109.941 37.3655C109.941 37.3655 113.047 40.0837 112.7 46.5823C112.796 46.985 112.222 56.69 112.222 56.69L113.984 55.0289C113.984 55.0289 116.138 52.4919 116.093 51.6764C116.128 51.616 115.247 48.5555 115.247 48.5555L115.559 43.109L114.713 38.4779L112.146 36.0718L109.946 37.3655H109.941Z" fill="#891819"/>
<path d="M81.2003 1.16279C81.2003 1.16279 81.9353 -0.28693 85.7509 0.80036C85.6552 0.80036 85.2273 3.42798 85.2273 3.42798L82.041 2.52694L81.1953 1.16279H81.2003Z" fill="#891819"/>
<path d="M98.5449 0.286962C98.5449 0.286962 102.491 -0.498303 102.844 0.533616L102.028 2.79881L98.5449 0.291996V0.286962Z" fill="#891819"/>
<path d="M0 24.3632L3.74511 10.9835L7.29894 21.6802L13.5911 10.9634L13.9133 24.3582H12.4887L12.373 15.5391L6.92141 24.8867L3.80552 15.5391L1.46986 24.3582H0V24.3632Z" fill="#891819"/>
<path d="M23.8653 22.35C23.5029 22.9591 22.934 23.6236 22.4005 23.986C21.6202 24.4995 20.7846 24.5951 20.1202 24.5951C19.1889 24.5951 18.298 24.4239 17.5177 23.6085C17.0446 23.1152 16.4707 22.2393 16.4707 20.7795C16.4707 19.4305 16.9841 18.2324 17.8197 17.3968C18.6352 16.5814 19.5312 16.2944 20.5732 16.2944C21.9021 16.2944 22.6824 16.7676 23.1404 17.2257C23.7092 17.8146 24.2428 18.8969 24.0314 20.704H17.8953C17.8751 21.8265 18.2577 22.4507 18.6 22.793C19.0581 23.2511 19.5866 23.382 20.1604 23.382C20.6185 23.382 21.1672 23.3065 21.6806 22.944C22.0783 22.6571 22.476 22.1437 22.7075 21.7259L23.8653 22.3551V22.35ZM22.7277 19.5563C22.7075 18.9875 22.4609 18.3784 22.0632 17.9958C21.6253 17.578 21.0565 17.5025 20.6185 17.5025C19.9138 17.5025 19.3651 17.6938 18.8869 18.167C18.5446 18.5093 18.2577 19.0026 18.1268 19.5563H22.7277Z" fill="#891819"/>
<path d="M27.8962 17.7339L27.0807 24.3633H25.7115L26.527 17.7339H25.6914L25.8424 16.4805H26.678L27.0203 13.6313H28.3895L28.0472 16.4805H29.4164L29.2654 17.7339H27.8962Z" fill="#891819"/>
<path d="M30.7051 16.4803H32.0742L31.9585 17.3361C32.1095 17.0894 32.3561 16.8025 32.7588 16.576C33.1364 16.3646 33.4787 16.2891 33.8965 16.2891C34.3696 16.2891 34.7321 16.4048 35.0542 16.6112L34.2539 17.8445C34.1028 17.7287 33.8562 17.5777 33.4384 17.5777C33.0609 17.5777 32.6984 17.6935 32.3914 17.9955C31.8427 18.5291 31.7068 19.4201 31.6111 20.2003L31.0977 24.3632H29.7285L30.7 16.4753L30.7051 16.4803Z" fill="#891819"/>
<path d="M35.8954 23.5075C35.3467 22.9185 34.8887 22.0275 34.8887 20.754C34.8887 19.6164 35.2662 18.4334 36.3132 17.467C37.1891 16.6666 38.1959 16.2891 39.4694 16.2891C40.7429 16.2891 41.6943 16.7069 42.3588 17.3713C43.1541 18.1717 43.3252 19.1382 43.3252 19.9536C43.3252 21.6651 42.6205 22.7675 41.9963 23.3716C40.9896 24.3582 39.7714 24.5897 38.7093 24.5897C37.5868 24.5897 36.6555 24.3028 35.8954 23.5075ZM37.2998 18.3781C36.6354 19.0224 36.2931 19.8983 36.2931 20.8496C36.2931 21.7406 36.6706 22.3145 36.9777 22.6366C37.2646 22.9387 37.8334 23.3766 38.7999 23.3766C39.7664 23.3766 40.4912 22.9588 40.9493 22.4655C41.5383 21.8363 41.9007 20.8899 41.9007 19.9738C41.9007 19.1784 41.5987 18.5845 41.2564 18.2271C40.8587 17.8093 40.2295 17.5072 39.4493 17.5072C38.9157 17.5072 38.065 17.6381 37.2998 18.3831V18.3781Z" fill="#891819"/>
<path d="M45.7559 28.7375H44.3867L45.9069 16.4803H47.2761L47.1452 17.5827C47.5076 17.1096 47.9254 16.8226 48.2476 16.6515C48.7812 16.3646 49.2946 16.2891 49.8634 16.2891C50.548 16.2891 51.5346 16.4199 52.335 17.2002C52.9441 17.7891 53.3619 18.6449 53.3619 19.9184C53.3619 21.4185 52.8132 22.7474 51.9726 23.5679C51.0967 24.4236 50.1302 24.5948 49.1436 24.5948C48.6302 24.5948 47.9456 24.5394 47.3365 24.1568C46.9741 23.9303 46.6519 23.588 46.4455 23.2658L45.7609 28.7375H45.7559ZM50.8853 22.7121C51.6051 22.0477 51.9474 20.9805 51.9474 20.014C51.9474 19.0476 51.5699 18.4737 51.2628 18.1717C50.9205 17.8093 50.3719 17.5072 49.5161 17.5072C48.6604 17.5072 48.0513 17.8093 47.558 18.3428C46.9892 18.9519 46.6821 19.8228 46.6821 20.7389C46.6821 21.348 46.813 22.0326 47.3264 22.6215C47.8197 23.1702 48.4288 23.3816 49.0933 23.3816C49.7577 23.3816 50.3467 23.2105 50.8803 22.7172L50.8853 22.7121Z" fill="#891819"/>
<path d="M55.9599 23.5075C55.4112 22.9185 54.9531 22.0275 54.9531 20.754C54.9531 19.6164 55.3307 18.4334 56.3777 17.467C57.2536 16.6666 58.2603 16.2891 59.5338 16.2891C60.8074 16.2891 61.7588 16.7069 62.4232 17.3713C63.2186 18.1717 63.3897 19.1382 63.3897 19.9536C63.3897 21.6651 62.685 22.7675 62.0608 23.3716C61.054 24.3582 59.8359 24.5897 58.7737 24.5897C57.6512 24.5897 56.72 24.3028 55.9599 23.5075ZM57.3643 18.3781C56.6998 19.0224 56.3575 19.8983 56.3575 20.8496C56.3575 21.7406 56.7351 22.3145 57.0421 22.6366C57.3291 22.9387 57.8979 23.3766 58.8644 23.3766C59.8308 23.3766 60.5557 22.9588 61.0138 22.4655C61.6027 21.8363 61.9651 20.8899 61.9651 19.9738C61.9651 19.1784 61.6631 18.5845 61.3208 18.2271C60.9232 17.8093 60.2939 17.5072 59.5137 17.5072C58.9801 17.5072 58.1294 17.6381 57.3643 18.3831V18.3781Z" fill="#891819"/>
<path d="M68.0865 10.5107L66.375 24.3636H65.0059L66.7173 10.5107H68.0865Z" fill="#891819"/>
<path d="M32.7301 31.5819L31.2652 43.4968H30.4296L31.8945 31.5819H28.6074L28.7031 30.8218H36.1127L36.0171 31.5819H32.7301Z" fill="#891819"/>
<path d="M36.9475 29.6439H37.7076L36.7965 36.9579C37.023 36.5804 37.3452 36.2381 37.6522 36.0267C38.0298 35.7599 38.5633 35.5686 39.2127 35.5686C39.9174 35.5686 40.5215 35.78 40.9242 36.1575C41.7044 36.8774 41.5886 37.9445 41.5131 38.609L40.904 43.4917H40.1439L40.753 38.609C40.8285 37.9647 40.8487 37.2398 40.3554 36.7465C40.1087 36.4998 39.6909 36.2884 39.1221 36.2884C38.3268 36.2884 37.8133 36.6307 37.4861 36.9529C37.1438 37.2952 36.6706 37.9999 36.4995 39.4597L36.0062 43.4867H35.2461L36.9576 29.6338L36.9475 29.6439Z" fill="#891819"/>
<path d="M43.8844 39.7162C43.7133 40.7229 44.1311 41.6944 44.6647 42.223C44.9667 42.525 45.5758 42.9831 46.6228 42.9831C47.2319 42.9831 47.9316 42.8119 48.4651 42.4344C48.8829 42.1324 49.2655 41.6542 49.4719 41.2162L50.0608 41.5938C49.7387 42.1626 49.2252 42.7717 48.6766 43.1341C48.2789 43.4009 47.6144 43.7029 46.6027 43.7029C45.5909 43.7029 44.72 43.4361 44.0203 42.676C43.3358 41.9562 43.0488 41.04 43.0488 40.0333C43.0488 38.5886 43.5824 37.451 44.3425 36.6909C44.9516 36.0818 45.8426 35.5684 47.1161 35.5684C48.143 35.5684 48.9987 35.9308 49.5474 36.4593C50.4233 37.2949 50.5944 38.5131 50.4988 39.7111H43.8844V39.7162ZM49.7387 38.9963C49.7186 38.1809 49.3763 37.456 48.9585 37.0181C48.596 36.6405 48.0071 36.2983 47.1161 36.2983C45.9936 36.2983 45.2737 36.8318 44.8912 37.2295C44.5086 37.6272 44.1512 38.2161 44.0002 38.9963H49.7387Z" fill="#891819"/>
<path d="M59.6199 35.7449H60.38L59.4286 43.4969H58.6685L58.8195 42.2988C58.5175 42.7166 58.1349 43.0791 57.6819 43.3056C57.2238 43.5321 56.6348 43.7032 55.8949 43.7032C55.0039 43.7032 54.1482 43.4918 53.4233 42.8123C52.9501 42.3743 52.3008 41.5035 52.3008 39.9984C52.3008 38.7249 52.7387 37.4715 53.6096 36.6359C54.1784 36.0872 55.0744 35.5737 56.4788 35.5737C57.0879 35.5737 57.7725 35.6895 58.3614 36.0872C58.8195 36.3892 59.197 36.8271 59.4235 37.2651L59.6148 35.7449H59.6199ZM54.1482 37.1493C53.5189 37.7785 53.1011 38.8406 53.1011 39.943C53.1011 40.9296 53.4837 41.7652 53.9921 42.2636C54.6364 42.8727 55.4167 42.9834 55.9704 42.9834C56.6902 42.9834 57.2641 42.8123 57.8127 42.4146C58.9554 41.579 59.2172 40.1343 59.2172 39.2987C59.2172 38.3675 58.9151 37.5671 58.4168 37.0738C58.0946 36.7315 57.4503 36.2936 56.3278 36.2936C55.472 36.2936 54.7321 36.5603 54.1431 37.1493H54.1482Z" fill="#891819"/>
<path d="M63.8385 36.4695L62.9828 43.5017H62.2227L63.0784 36.4695H62.2227L62.3183 35.7497H63.174L63.5163 32.9761H64.2764L63.9341 35.7497H65.2832L65.1875 36.4695H63.8385Z" fill="#891819"/>
<path d="M66.6665 39.7162C66.4954 40.7229 66.9132 41.6944 67.4467 42.223C67.7488 42.525 68.3579 42.9831 69.4049 42.9831C70.014 42.9831 70.7136 42.8119 71.2472 42.4344C71.665 42.1324 72.0426 41.6542 72.254 41.2162L72.8429 41.5938C72.5208 42.1626 72.0073 42.7717 71.4536 43.1341C71.0559 43.4009 70.3915 43.7029 69.3847 43.7029C68.378 43.7029 67.5021 43.4361 66.8024 42.676C66.1178 41.9562 65.8359 41.04 65.8359 40.0333C65.8359 38.5886 66.3695 37.451 67.1296 36.6909C67.7387 36.0818 68.6297 35.5684 69.9032 35.5684C70.9301 35.5684 71.7858 35.9308 72.3345 36.4593C73.2104 37.2949 73.3815 38.5131 73.2859 39.7111H66.6715L66.6665 39.7162ZM72.5208 38.9963C72.5006 38.1809 72.1583 37.456 71.7405 37.0181C71.3781 36.6405 70.7892 36.2983 69.8982 36.2983C68.7757 36.2983 68.0558 36.8318 67.6733 37.2295C67.2957 37.6272 66.9333 38.2161 66.7823 38.9963H72.5208Z" fill="#891819"/>
<path d="M76.0549 35.7449H76.815L76.6992 36.7516C76.8502 36.4647 77.117 36.1224 77.4392 35.916C77.7412 35.7046 78.159 35.5737 78.5768 35.5737C78.6926 35.5737 79.0147 35.5939 79.3369 35.765L78.8788 36.4496C78.8033 36.3942 78.6322 36.2986 78.3302 36.2986C77.9476 36.2986 77.5499 36.4899 77.268 36.7919C76.6388 37.4564 76.4677 38.6544 76.3569 39.6058L75.8636 43.5019H75.1035L76.0549 35.7499V35.7449Z" fill="#891819"/>
</svg>
